Simulation
nRows=49
nColumns=15
endheader
time  TH_x TH_y TH_z SC_y  SC_z  SC_x  AC_y  AC_z  AC_x  GH_y  GH_z  GH_yy  EL_x  PS_y
1.55  0.000000  0.000000  0.000000  -33.15833645945317  7.108453781367024  20.84637564943227  53.454260834171166  11.576572064100642  -4.537323000714657  22.266237039551335  54.95224143523352  -20.4687263546376  17.967611066595165  0.000000
1.581  0.000000  0.000000  0.000000  -33.54691559335388  7.433587454067412  21.55880246722124  53.45267969320856  11.613533435950732  -4.274341777480816  22.088932108774113  55.34291544875725  -20.489090338210985  17.935962427212562  0.000000
1.612  0.000000  0.000000  0.000000  -33.90988621378406  7.721395236199666  22.15330620216118  53.492103793965725  11.622175894391171  -3.996116840606229  21.878906173783392  55.721307491516086  -20.45871003213644  17.910943074877544  0.000000
1.643  0.000000  0.000000  0.000000  -34.23896639806492  7.952011443990059  22.635754340105365  53.56289567248672  11.624345056988142  -3.733245616050365  21.656208302129944  56.065633163103726  -20.410379445907985  17.905597179472405  0.000000
1.674  0.000000  0.000000  0.000000  -34.538590298588296  8.12250709490155  23.02349396423573  53.64839564573575  11.634874951962  -3.5054456906901867  21.45941599868415  56.340758597501946  -20.370602938899367  17.923082164809806  0.000000
1.705  0.000000  0.000000  0.000000  -34.818045002271504  8.24227853490394  23.33564429909869  53.73362604671638  11.655337798584263  -3.320307427771914  21.327381513291662  56.51456174467194  -20.34813103784539  17.955578296279928  0.000000
1.736  0.000000  0.000000  0.000000  -35.0777359650871  8.32180133784474  23.583798563333175  53.8082584793924  11.677546383032505  -3.184332714353099  21.285892838206006  56.570059414417294  -20.342427138698095  17.99235839768977  0.000000
1.767  0.000000  0.000000  0.000000  -35.29962862951625  8.365062266015974  23.76555709664682  53.863248232658876  11.687521259078293  -3.1100948639950157  21.34169078036734  56.51214497341465  -20.35069721540648  18.025568490124872  0.000000
1.798  0.000000  0.000000  0.000000  -35.451861187723516  8.371258142808603  23.865191412111624  53.88935154596812  11.670701329526716  -3.1147211425862387  21.486143236736623  56.36147605235764  -20.373783704531693  18.051175265654756  0.000000
1.829  0.000000  0.000000  0.000000  -35.504895355807065  8.33796810596664  23.865553838577636  53.87878027393072  11.616462796897007  -3.2109663007507496  21.70527575450113  56.138250042737525  -20.41836344933856  18.06774718361151  0.000000
1.8599999999999999  0.000000  0.000000  0.000000  -35.4437924202352  8.25891318634078  23.75954383834788  53.833810682397825  11.524704996695467  -3.402736318108794  21.98383139001348  55.847994037852075  -20.504416071020138  18.076045095162474  0.000000
1.891  0.000000  0.000000  0.000000  -35.272404849601216  8.123843292294884  23.55312981804181  53.76923510290377  11.405028286763514  -3.681230572106047  22.305933256523545  55.47943474311048  -20.661654199812816  18.078864541242858  0.000000
1.922  0.000000  0.000000  0.000000  -35.01018800732858  7.925149202770724  23.259329732961742  53.71016146257676  11.265605917164317  -4.0280280297760145  22.653835193120834  55.017443096503285  -20.91692688605845  18.08011621980156  0.000000
1.953  0.000000  0.000000  0.000000  -34.68643634230287  7.663756736790825  22.887206550573694  53.68259073971561  11.103710365456962  -4.416516828479995  23.008769654219506  54.45886833194523  -21.271049376062017  18.08433259697487  0.000000
1.984  0.000000  0.000000  0.000000  -34.33388348767594  7.351151870672624  22.433937623778974  53.70433340660354  10.90797824858667  -4.815935285580959  23.354841315855854  53.817920329960295  -21.68965754746699  18.09708986143805  0.000000
2.015  0.000000  0.000000  0.000000  -33.98131400901062  7.004922790203806  21.888590593849624  53.77644941427858  10.668844571526417  -5.194890964353951  23.68388747800446  53.11575437010375  -22.112906763268608  18.125845833065362  0.000000
2.046  0.000000  0.000000  0.000000  -33.64510700753658  6.639738919547497  21.240295607709722  53.88549588976094  10.388137680827514  -5.530421822633162  23.996409707940355  52.36965963809547  -22.48482901477026  18.17772008194746  0.000000
2.077  0.000000  0.000000  0.000000  -33.3264443115132  6.259710940040615  20.485801043796776  54.012480112319544  10.080308623766676  -5.811116395024986  24.295347734310774  51.58787430566472  -22.774185418061162  18.254975618246966  0.000000
2.108  0.000000  0.000000  0.000000  -33.02135790095982  5.8633585201519605  19.629663303923007  54.142203485984204  9.765311583850114  -6.03266364649861  24.581990805091145  50.77162765252905  -22.97888265678662  18.35419270173429  0.000000
2.139  0.000000  0.000000  0.000000  -32.73141111260743  5.449331842851335  18.685733436381838  54.26589514080191  9.457810036665656  -6.195697535436704  24.855740136912715  49.920105854405605  -23.111503473036286  18.469364167331644  0.000000
2.17  0.000000  0.000000  0.000000  -32.45859123298243  5.015329960994371  17.673313840119558  54.378274051320396  9.165021260370432  -6.307922311912439  25.113001380883833  49.03542742867891  -23.18694009447704  18.59304061877766  0.000000
2.201  0.000000  0.000000  0.000000  -32.20183784538818  4.561839875598235  16.60959938347676  54.47237307489722  8.888314761964024  -6.378577342625722  25.348276059532942  48.12268512239432  -23.214917727076337  18.71832032604578  0.000000
2.232  0.000000  0.000000  0.000000  -31.958893450729896  4.092115979351198  15.507587445960676  54.540853673662575  8.62760199258884  -6.414843176182161  25.556691976685705  47.187026357803816  -23.200070609196523  18.840348679776255  0.000000
2.263  0.000000  0.000000  0.000000  -31.72789970336057  3.610142507367519  14.378527292220285  54.57865697671572  8.382808091922842  -6.421812626357901  25.735996515626976  46.2327403063316  -23.142950152428003  18.955000350384402  0.000000
2.294  0.000000  0.000000  0.000000  -31.507335692940305  3.120398081919551  13.234785157645623  54.583527726621845  8.15602390293329  -6.403773023137937  25.888344359378557  45.26049597656737  -23.04195836790184  19.059128881527517  0.000000
2.325  0.000000  0.000000  0.000000  -31.296733488265787  2.627689877120696  12.091954504488903  54.55634031948716  7.948792049172779  -6.365657543769974  26.01855936569554  44.26851838444338  -22.894095323213975  19.1498667653277  0.000000
2.356  0.000000  0.000000  0.000000  -31.097807956257853  2.1377132674347137  10.967313456536623  54.500633705460146  7.760977753323773  -6.31208065344723  26.134051442092755  43.252682385777206  -22.697259277414307  19.225469019286713  0.000000
2.387  0.000000  0.000000  0.000000  -30.911950352786757  1.6574041849770498  9.875389092834832  54.41970455206119  7.588850750355805  -6.247071054198593  26.24104020138286  42.20969230932779  -22.452462938746596  19.287097664271453  0.000000
2.418  0.000000  0.000000  0.000000  -30.738725897147432  1.1951110647739098  8.824949369468149  54.31471322056413  7.428259008850777  -6.1717387587073  26.344233485367802  41.1351137090867  -22.164188193582802  19.338231988883383  0.000000
2.449  0.000000  0.000000  0.000000  -30.575947182443766  0.7585343204685391  7.817913063836979  54.185136420858655  7.2765181774201135  -6.0856550784555825  26.44637411558315  40.02566876648957  -21.840132567257807  19.38337574952754  0.000000
2.48  0.000000  0.000000  0.000000  -30.42295078813401  0.35258411473521756  6.854065970792213  54.03160962493585  7.135110622627549  -5.9876342513627625  26.55092248949887  38.87670095500855  -21.491098818958786  19.426849189462377  0.000000
2.511  0.000000  0.000000  0.000000  -30.280534011804114  -0.021880425507730953  5.933959007561036  53.859674689864086  7.008458234398088  -5.878673483938505  26.6609897310709  37.68484618495225  -21.132936573421652  19.46999112018344  0.000000
2.542  0.000000  0.000000  0.000000  -30.152186189879394  -0.36755386536456935  5.0616477784562  53.67853818114115  6.902622905340825  -5.760552472564017  26.780798974931965  36.44665460562265  -20.784055008153043  19.513196836381507  0.000000
2.573  0.000000  0.000000  0.000000  -30.041140243940458  -0.6866820405984032  4.241558168911946  53.49996035478405  6.82111565537642  -5.6355604713326874  26.914269445698146  35.16223338367993  -20.461633881925422  19.55494026982632  0.000000
2.604  0.000000  0.000000  0.000000  -29.947473859448067  -0.9773379186521193  3.4773835708285525  53.32988668078292  6.7630259787846025  -5.502652202232173  27.066022341371266  33.83237314750449  -20.17405856234182  19.595846040975097  0.000000
2.635  0.000000  0.000000  0.000000  -29.86509472779301  -1.2331923436366947  2.7679285379268586  53.170195222969916  6.7238989280849975  -5.359599075594238  27.240276165095445  32.46162638594969  -19.91946999117464  19.634354484057546  0.000000
2.666  0.000000  0.000000  0.000000  -29.785669881102393  -1.4470542767456551  2.109982875616829  53.01558268227917  6.697720350986344  -5.202135374622277  27.44007252228183  31.055066753663496  -19.687886973007934  19.67276932714254  0.000000
2.697  0.000000  0.000000  0.000000  -29.70371141786209  -1.6157855109160133  1.4969463293590624  52.86458118671208  6.680980563541723  -5.029388182336035  27.66696037960218  29.623427357517944  -19.46615496602943  19.71074526324073  0.000000
2.7279999999999998  0.000000  0.000000  0.000000  -29.618416965080474  -1.743975973749046  0.9244802346259527  52.71275756532968  6.671506917739139  -4.844418451124397  27.918355400540708  28.180372688668097  -19.24189944860848  19.753953541545744  0.000000
2.759  0.000000  0.000000  0.000000  -29.53465094189155  -1.8409971048204412  0.387645545153682  52.56244998203552  6.670699828854066  -4.655215521106906  28.191492095342895  26.744168045464605  -19.002840645736203  19.804054376911957  0.000000
2.79  0.000000  0.000000  0.000000  -29.455446439864684  -1.9153859296681097  -0.11459494923806157  52.40930180779951  6.678033879242899  -4.469262098089627  28.48009950141427  25.32907255740618  -18.74089071153238  19.870683190033482  0.000000
2.821  0.000000  0.000000  0.000000  -29.381978979806632  -1.9711852268277197  -0.5817630091788585  52.25502883669028  6.696655351786686  -4.293668658575675  28.782904532893355  23.94348287430986  -18.444797454077886  19.959264280544648  0.000000
2.852  0.000000  0.000000  0.000000  -29.305739404141057  -2.0058811992963843  -1.006473579180924  52.09361535119037  6.724158138528709  -4.133463207933534  29.094731918815306  22.58582455853533  -18.111497184213217  20.08443493472269  0.000000
2.883  0.000000  0.000000  0.000000  -29.22243281320961  -2.0153861450603157  -1.3804727232169227  51.92694434403803  6.764098628032066  -3.9934692119348174  29.420359059368543  21.251108849387258  -17.730750841537358  20.2531774754185  0.000000
2.914  0.000000  0.000000  0.000000  -29.12028217700581  -1.996460460799782  -1.6922451159090157  51.75155943851828  6.8121626243486695  -3.8815210000340867  29.757499197799156  19.93424220056638  -17.30685681593606  20.476692954870096  0.000000
2.945  0.000000  0.000000  0.000000  -29.00978989565234  -1.9540733332499256  -1.9331039162404795  51.57386890014923  6.8708832065531285  -3.8033946301456143  30.119059828135608  18.633638915140363  -16.832721186284335  20.749994311597295  0.000000
2.976  0.000000  0.000000  0.000000  -28.880755224983567  -1.8954925160412257  -2.0969262017787975  51.397566979073424  6.931795282943267  -3.7729638044431213  30.506497045186098  17.343385619220303  -16.320852796086683  21.07102232409547  0.000000
3.007  0.000000  0.000000  0.000000  -28.775869907474704  -1.8480883251868359  -2.187705091165044  51.232487933941805  6.992243222860629  -3.79205294851425  30.938454316948164  16.06163149906317  -15.766272505203583  21.423050359398836  0.000000
3.038  0.000000  0.000000  0.000000  -28.64335007372836  -1.8210925376000227  -2.2238950870397476  51.07808822280739  7.0297157785646665  -3.8771914898800266  31.41640409112801  14.759067386259517  -15.180671225931391  21.803463003863158  0.000000
